<svg  viewBox="0 0 56 56" fill="none" xmlns="http://www.w3.org/2000/svg">
<path d="M16.5158 14.8186V16.5504H18.2658V14.8186C18.2658 12.2152 16.1479 10.0973 13.5445 10.0973C10.9412 10.0973 8.82324 12.2152 8.82324 14.8186V23.6198H10.5732V14.8186C10.5732 13.1804 11.9061 11.8473 13.5445 11.8473C15.183 11.8473 16.5158 13.1801 16.5158 14.8186Z" fill="#FE5731"/>
<path d="M10.5728 23.6198V14.8186C10.5728 13.2541 11.789 11.9711 13.3253 11.8584C13.2529 11.8532 13.1805 11.8473 13.1065 11.8473C11.4681 11.8473 10.1353 13.1804 10.1353 14.8186V23.6198H10.5728Z" fill="#FE5731"/>
<path d="M17.8282 14.8186V16.5504H18.2657V14.8186C18.2657 12.2152 16.1478 10.0973 13.5444 10.0973C13.4705 10.0973 13.3987 10.1049 13.3257 10.1084C15.8271 10.2237 17.8282 12.2889 17.8282 14.8186Z" fill="#FE5731"/>
<path d="M41.3806 20.3385C39.7787 20.3385 38.1951 20.7557 36.8008 21.5449L30.2211 25.2693C28.335 26.3368 26.1926 26.901 24.0252 26.901H4.53564L5.75802 36.209C6.18699 39.475 8.97058 41.9171 12.2647 41.9171H43.5189C46.9047 41.9171 49.7349 39.3411 50.0525 35.9702L51.5251 20.3385H41.3806Z" fill="#FFB8A8"/>
<path d="M19.3958 28.6512C19.1543 28.6512 18.9483 28.4552 18.9483 28.2137C18.9483 27.9722 19.134 27.7762 19.3757 27.7762H19.3958C19.6373 27.7762 19.8333 27.9722 19.8333 28.2137C19.8333 28.4552 19.6373 28.6512 19.3958 28.6512ZM17.6255 28.6512H6.03174C5.79024 28.6512 5.59424 28.4552 5.59424 28.2137C5.59424 27.9722 5.79024 27.7762 6.03174 27.7762H17.6255C17.867 27.7762 18.063 27.9722 18.063 28.2137C18.063 28.4552 17.8672 28.6512 17.6255 28.6512Z" fill="#FF9982"/>
<path d="M49.1314 20.3385L47.8649 33.7827C47.5473 37.1536 44.7173 39.7296 41.3313 39.7296H10.0774C8.83245 39.7296 7.66082 39.3803 6.66113 38.7702C7.82138 40.6713 9.91263 41.9171 12.2649 41.9171H43.519C46.9048 41.9171 49.735 39.3411 50.0526 35.9702L51.5252 20.3385H49.1314Z" fill="#FF9982"/>
<path d="M50.3282 20.3385L48.9586 34.8764C48.641 38.2473 45.811 40.8233 42.425 40.8233H11.1711C9.64661 40.8233 8.23195 40.2994 7.10889 39.4137C8.31792 40.9474 10.1898 41.9171 12.2648 41.9171H43.5189C46.9048 41.9171 49.7349 39.3411 50.0526 35.9702L51.5252 20.3385H50.3282Z" fill="#FF7455"/>
<path d="M24.0255 26.901H3.66406C2.758 26.901 2.02344 26.1667 2.02344 25.2604C2.02344 24.3541 2.758 23.6198 3.66406 23.6198H24.0255C25.6277 23.6198 27.2112 23.2028 28.6053 22.4136L35.1851 18.6891C37.0713 17.6216 39.2138 17.0573 41.3809 17.0573H52.3362C53.2422 17.0573 53.9768 17.7916 53.9768 18.6979C53.9768 19.6042 53.2422 20.3385 52.3362 20.3385H41.3809C39.779 20.3385 38.1955 20.7557 36.8012 21.5449L30.2214 25.2693C28.3353 26.3368 26.1929 26.901 24.0255 26.901Z" fill="#FF7050"/>
<path d="M52.8123 17.1281C52.858 17.2788 52.883 17.4385 52.883 17.6043C52.883 18.5106 52.1484 19.245 51.2423 19.245H40.2871C38.6852 19.245 37.1017 19.6621 35.7074 20.4514L29.1276 24.1758C27.2415 25.2433 25.0991 25.8075 22.9317 25.8075H2.57046C2.40486 25.8075 2.24518 25.7823 2.09424 25.7368C2.29833 26.4106 2.92374 26.9012 3.66421 26.9012H24.0257C26.1931 26.9012 28.3357 26.337 30.2215 25.2695L36.8013 21.5451C38.1956 20.7561 39.7792 20.3387 41.3811 20.3387H52.3363C53.2424 20.3387 53.9769 19.6044 53.9769 18.6981C53.9767 17.9574 53.4861 17.3322 52.8123 17.1281Z" fill="#FE5731"/>
<path d="M16.7877 45.9027H15.8066C15.2929 45.9027 14.8484 45.5453 14.7382 45.0435L14.0518 41.9171H18.5423L17.8558 45.0435C17.7458 45.5453 17.3013 45.9027 16.7877 45.9027Z" fill="#FF7050"/>
<path d="M18.0086 41.9171L17.4182 44.606C17.308 45.1076 16.8637 45.4652 16.3498 45.4652H15.3688C15.1824 45.4652 15.0056 45.4169 14.8501 45.3331C15.0382 45.6763 15.3989 45.9027 15.8063 45.9027H16.7873C17.301 45.9027 17.7455 45.5453 17.8557 45.0435L18.5422 41.9171H18.0086Z" fill="#FE5731"/>
<path d="M40.1939 45.9027H39.2128C38.6992 45.9027 38.2547 45.5453 38.1444 45.0435L37.458 41.9171H41.9485L41.2621 45.0435C41.152 45.5453 40.7075 45.9027 40.1939 45.9027Z" fill="#FF7050"/>
<path d="M41.4149 41.9171L40.8245 44.606C40.7142 45.1076 40.2699 45.4652 39.7561 45.4652H38.775C38.5886 45.4652 38.4119 45.4169 38.2563 45.3331C38.4445 45.6763 38.8052 45.9027 39.2125 45.9027H40.1936C40.7072 45.9027 41.1517 45.5453 41.262 45.0435L41.9484 41.9171H41.4149Z" fill="#FE5731"/>
<path d="M18.8125 18.3004H15.9688C15.727 18.3004 15.5312 18.1046 15.5312 17.8629V16.9879C15.5312 16.7462 15.727 16.5504 15.9688 16.5504H18.8125C19.0542 16.5504 19.25 16.7462 19.25 16.9879V17.8629C19.25 18.1044 19.0542 18.3004 18.8125 18.3004Z" fill="#FF4D25"/>
<path d="M18.8125 16.5504V17.4254C18.8125 17.6669 18.6167 17.8629 18.375 17.8629H15.5312C15.5312 18.1044 15.727 18.3004 15.9688 18.3004H18.8125C19.0542 18.3004 19.25 18.1044 19.25 17.8629V16.9879C19.25 16.7462 19.0542 16.5504 18.8125 16.5504Z" fill="#FF4D25"/>
</svg>
