<svg viewBox="0 0 56 56" fill="none" xmlns="http://www.w3.org/2000/svg">
<path d="M51.625 52.0625H4.375C4.13328 52.0625 3.9375 51.8667 3.9375 51.625V4.375C3.9375 4.13328 4.13328 3.9375 4.375 3.9375H51.625C51.8667 3.9375 52.0625 4.13328 52.0625 4.375V51.625C52.0625 51.8667 51.8667 52.0625 51.625 52.0625Z" fill="white"/>
<path d="M51.625 3.9375H50.9688V50.5312C50.9688 50.7728 50.7728 50.9688 50.5312 50.9688H3.9375V51.625C3.9375 51.8665 4.1335 52.0625 4.375 52.0625H51.625C51.8665 52.0625 52.0625 51.8665 52.0625 51.625V4.375C52.0625 4.1335 51.8665 3.9375 51.625 3.9375Z" fill="white"/>
<path d="M19.1772 19.6147H5.46875C5.22703 19.6147 5.03125 19.4189 5.03125 19.1772V5.46875C5.03125 5.22703 5.22703 5.03125 5.46875 5.03125H19.1772C19.4189 5.03125 19.6147 5.22703 19.6147 5.46875V19.1772C19.6147 19.4187 19.4187 19.6147 19.1772 19.6147Z" fill="#FFCEC4"/>
<path d="M34.8542 19.6147H21.146C20.9043 19.6147 20.7085 19.4189 20.7085 19.1772V5.46875C20.7085 5.22703 20.9043 5.03125 21.146 5.03125H34.8544C35.0961 5.03125 35.2919 5.22703 35.2919 5.46875V19.1772C35.2917 19.4187 35.0959 19.6147 34.8542 19.6147Z" fill="#FFCEC4"/>
<path d="M50.5312 19.6147H36.8228C36.581 19.6147 36.3853 19.4189 36.3853 19.1772V5.46875C36.3853 5.22703 36.581 5.03125 36.8228 5.03125H50.5312C50.7729 5.03125 50.9687 5.22703 50.9687 5.46875V19.1772C50.9687 19.4187 50.7729 19.6147 50.5312 19.6147Z" fill="#FFCEC4"/>
<path d="M19.1772 35.2916H5.46875C5.22703 35.2916 5.03125 35.0958 5.03125 34.8541V21.1459C5.03125 20.9042 5.22703 20.7084 5.46875 20.7084H19.1772C19.4189 20.7084 19.6147 20.9042 19.6147 21.1459V34.8543C19.6147 35.0958 19.4187 35.2916 19.1772 35.2916Z" fill="#FFCEC4"/>
<path d="M34.8542 35.2916H21.146C20.9043 35.2916 20.7085 35.0958 20.7085 34.8541V21.1459C20.7085 20.9042 20.9043 20.7084 21.146 20.7084H34.8544C35.0961 20.7084 35.2919 20.9042 35.2919 21.1459V34.8543C35.2917 35.0958 35.0959 35.2916 34.8542 35.2916Z" fill="#FFCEC4"/>
<path d="M50.5312 35.2916H36.8228C36.581 35.2916 36.3853 35.0958 36.3853 34.8541V21.1459C36.3853 20.9042 36.581 20.7084 36.8228 20.7084H50.5312C50.7729 20.7084 50.9687 20.9042 50.9687 21.1459V34.8543C50.9687 35.0958 50.7729 35.2916 50.5312 35.2916Z" fill="#FFCEC4"/>
<path d="M19.1772 50.9687H5.46875C5.22703 50.9687 5.03125 50.7729 5.03125 50.5312V36.8228C5.03125 36.5811 5.22703 36.3853 5.46875 36.3853H19.1772C19.4189 36.3853 19.6147 36.5811 19.6147 36.8228V50.5312C19.6147 50.7729 19.4187 50.9687 19.1772 50.9687Z" fill="#FFCEC4"/>
<path d="M34.8542 50.9687H21.146C20.9043 50.9687 20.7085 50.7729 20.7085 50.5312V36.8228C20.7085 36.5811 20.9043 36.3853 21.146 36.3853H34.8544C35.0961 36.3853 35.2919 36.5811 35.2919 36.8228V50.5312C35.2917 50.7729 35.0959 50.9687 34.8542 50.9687Z" fill="#FFCEC4"/>
<path d="M50.5312 50.9687H36.8228C36.581 50.9687 36.3853 50.7729 36.3853 50.5312V36.8228C36.3853 36.5811 36.581 36.3853 36.8228 36.3853H50.5312C50.7729 36.3853 50.9687 36.5811 50.9687 36.8228V50.5312C50.9687 50.7729 50.7729 50.9687 50.5312 50.9687Z" fill="#FFCEC4"/>
<g clip-path="url(#clip0_688_6328)">
<path d="M40.159 24.8613H16.6375C16.0726 24.8613 15.6148 25.3302 15.6148 25.9086V28.5267C15.6148 29.1051 16.0726 29.5739 16.6375 29.5739H40.159C40.7238 29.5739 41.1816 29.1051 41.1816 28.5267V25.9086C41.1816 25.3302 40.7238 24.8613 40.159 24.8613Z" fill="#FF4D25"/>
<path d="M31.4092 13.8653C31.1588 11.558 30.0794 6.49926 28.4995 5H31.4092V13.8653Z" fill="#FF4D25"/>
<path d="M24.866 13.8653H25.1543V5H28.4995C30.0794 6.49926 31.1588 11.558 31.4092 13.8653H31.9301C36.1923 13.8653 39.6475 17.4035 39.6475 21.7681V22.4396C39.6475 22.6204 39.5044 22.7669 39.3279 22.7669H17.4682C17.2918 22.7669 17.1486 22.6204 17.1486 22.4396V21.7681C17.1486 17.4035 20.6038 13.8653 24.866 13.8653Z" fill="#FF4D25"/>
<path d="M28.3982 30.6212C28.963 30.6212 29.4209 31.0901 29.4209 31.6684V33.1738C29.4209 33.7521 28.963 34.221 28.3982 34.221C27.8335 34.221 27.3756 33.7521 27.3756 33.1738V31.6684C27.3756 31.0901 27.8335 30.6212 28.3982 30.6212Z" fill="#FF4D25"/>
<path d="M22.262 30.6212C22.8268 30.6212 23.2847 31.0901 23.2847 31.6684V33.1738C23.2847 33.7521 22.8268 34.221 22.262 34.221C21.6972 34.221 21.2393 33.7521 21.2393 33.1738V31.6684C21.2393 31.0901 21.6972 30.6212 22.262 30.6212Z" fill="#FF4D25"/>
<path d="M25.3304 35.3992C25.8951 35.3992 26.353 35.8681 26.353 36.4464V37.9518C26.353 38.5302 25.8951 38.9991 25.3304 38.9991C24.7656 38.9991 24.3077 38.5302 24.3077 37.9518V36.4464C24.3077 35.8681 24.7656 35.3992 25.3304 35.3992Z" fill="#FF4D25"/>
<path d="M18.6829 35.3992C19.2477 35.3992 19.7056 35.8681 19.7056 36.4464V37.9518C19.7056 38.5302 19.2477 38.9991 18.6829 38.9991C18.1181 38.9991 17.6602 38.5302 17.6602 37.9518V36.4464C17.6602 35.8681 18.1181 35.3992 18.6829 35.3992Z" fill="#FF4D25"/>
<path d="M34.5345 30.6212C35.0992 30.6212 35.5571 31.0901 35.5571 31.6684V33.1738C35.5571 33.7521 35.0992 34.221 34.5345 34.221C33.9697 34.221 33.5118 33.7521 33.5118 33.1738V31.6684C33.5118 31.0901 33.9697 30.6212 34.5345 30.6212Z" fill="#FF4D25"/>
<path d="M31.4661 35.3992C32.0309 35.3992 32.4888 35.8681 32.4888 36.4464V37.9518C32.4888 38.5302 32.0309 38.9991 31.4661 38.9991C30.9013 38.9991 30.4434 38.5302 30.4434 37.9518V36.4464C30.4434 35.8681 30.9013 35.3992 31.4661 35.3992Z" fill="#FF4D25"/>
<path d="M37.6023 35.3992C38.1671 35.3992 38.625 35.8681 38.625 36.4464V37.9518C38.625 38.5302 38.1671 38.9991 37.6023 38.9991C37.0376 38.9991 36.5797 38.5302 36.5797 37.9518V36.4464C36.5797 35.8681 37.0376 35.3992 37.6023 35.3992Z" fill="#FF4D25"/>
</g>
<path d="M25.1572 5H31.4187V8H25.1572L25.1572 5Z" fill="#FF4D25"/>
<defs>
<clipPath id="clip0_688_6328">
<rect width="27" height="31" fill="white" transform="matrix(-1 0 0 1 42 8)"/>
</clipPath>
</defs>
</svg>
