<svg width="52" height="36" viewBox="0 0 52 36" fill="none" xmlns="http://www.w3.org/2000/svg">
<path d="M14.5158 4.81857V6.55041H16.2658V4.81857C16.2658 2.21523 14.1479 0.09729 11.5445 0.09729C8.94118 0.09729 6.82324 2.21523 6.82324 4.81857V13.6198H8.57324V4.81857C8.57324 3.18035 9.90609 1.84729 11.5445 1.84729C13.183 1.84729 14.5158 3.18013 14.5158 4.81857Z" fill="#FE5731"/>
<path d="M8.57275 13.6198V4.81857C8.57275 3.25407 9.789 1.9711 11.3253 1.85845C11.2529 1.8532 11.1805 1.84729 11.1065 1.84729C9.4681 1.84729 8.13525 3.18035 8.13525 4.81857V13.6198H8.57275Z" fill="#FE5731"/>
<path d="M15.8282 4.81857V6.55041H16.2657V4.81857C16.2657 2.21523 14.1478 0.09729 11.5444 0.09729C11.4705 0.09729 11.3987 0.104946 11.3257 0.108446C13.8271 0.223727 15.8282 2.28895 15.8282 4.81857Z" fill="#FE5731"/>
<path d="M39.3806 10.3385C37.7787 10.3385 36.1951 10.7557 34.8008 11.5449L28.2211 15.2693C26.335 16.3368 24.1926 16.901 22.0252 16.901H2.53564L3.75802 26.209C4.18699 29.475 6.97058 31.9171 10.2647 31.9171H41.5189C44.9047 31.9171 47.7349 29.3411 48.0525 25.9702L49.5251 10.3385H39.3806Z" fill="#FFB8A8"/>
<path d="M17.3958 18.6512C17.1543 18.6512 16.9483 18.4552 16.9483 18.2137C16.9483 17.9722 17.134 17.7762 17.3757 17.7762H17.3958C17.6373 17.7762 17.8333 17.9722 17.8333 18.2137C17.8333 18.4552 17.6373 18.6512 17.3958 18.6512ZM15.6255 18.6512H4.03174C3.79024 18.6512 3.59424 18.4552 3.59424 18.2137C3.59424 17.9722 3.79024 17.7762 4.03174 17.7762H15.6255C15.867 17.7762 16.063 17.9722 16.063 18.2137C16.063 18.4552 15.8672 18.6512 15.6255 18.6512Z" fill="#FF9982"/>
<path d="M47.1314 10.3385L45.8649 23.7827C45.5473 27.1536 42.7173 29.7296 39.3313 29.7296H8.07735C6.83245 29.7296 5.66082 29.3803 4.66113 28.7702C5.82138 30.6713 7.91263 31.9171 10.2649 31.9171H41.519C44.9048 31.9171 47.735 29.3411 48.0526 25.9702L49.5252 10.3385H47.1314Z" fill="#FF9982"/>
<path d="M48.3282 10.3385L46.9586 24.8764C46.641 28.2473 43.811 30.8233 40.425 30.8233H9.17107C7.64661 30.8233 6.23195 30.2994 5.10889 29.4137C6.31792 30.9474 8.18976 31.9171 10.2648 31.9171H41.5189C44.9048 31.9171 47.7349 29.3411 48.0526 25.9702L49.5252 10.3385H48.3282Z" fill="#FF7455"/>
<path d="M22.0255 16.901H1.66406C0.758 16.901 0.0234375 16.1667 0.0234375 15.2604C0.0234375 14.3541 0.758 13.6198 1.66406 13.6198H22.0255C23.6277 13.6198 25.2112 13.2028 26.6053 12.4136L33.1851 8.68913C35.0713 7.62163 37.2138 7.05725 39.3809 7.05725H50.3362C51.2422 7.05725 51.9768 7.79159 51.9768 8.69788C51.9768 9.60416 51.2422 10.3385 50.3362 10.3385H39.3809C37.779 10.3385 36.1955 10.7557 34.8012 11.5449L28.2214 15.2693C26.3353 16.3368 24.1929 16.901 22.0255 16.901Z" fill="#FF7050"/>
<path d="M50.8123 7.12811C50.858 7.27883 50.883 7.43852 50.883 7.60433C50.883 8.51061 50.1484 9.24496 49.2423 9.24496H38.2871C36.6852 9.24496 35.1017 9.66211 33.7074 10.4514L27.1276 14.1758C25.2415 15.2433 23.0991 15.8075 20.9317 15.8075H0.570457C0.404863 15.8075 0.245176 15.7823 0.0942383 15.7368C0.298332 16.4106 0.923738 16.9012 1.66421 16.9012H22.0257C24.1931 16.9012 26.3357 16.337 28.2215 15.2695L34.8013 11.5451C36.1956 10.7561 37.7792 10.3387 39.3811 10.3387H50.3363C51.2424 10.3387 51.9769 9.60436 51.9769 8.69808C51.9767 7.95739 51.4861 7.33221 50.8123 7.12811Z" fill="#FE5731"/>
<path d="M14.7877 35.9027H13.8066C13.2929 35.9027 12.8484 35.5453 12.7382 35.0435L12.0518 31.9171H16.5423L15.8558 35.0435C15.7458 35.5453 15.3013 35.9027 14.7877 35.9027Z" fill="#FF7050"/>
<path d="M16.0086 31.9171L15.4182 34.606C15.308 35.1076 14.8637 35.4652 14.3498 35.4652H13.3688C13.1824 35.4652 13.0056 35.4169 12.8501 35.3331C13.0382 35.6763 13.3989 35.9027 13.8063 35.9027H14.7873C15.301 35.9027 15.7455 35.5453 15.8557 35.0435L16.5422 31.9171H16.0086Z" fill="#FE5731"/>
<path d="M38.1939 35.9027H37.2128C36.6992 35.9027 36.2547 35.5453 36.1444 35.0435L35.458 31.9171H39.9485L39.2621 35.0435C39.152 35.5453 38.7075 35.9027 38.1939 35.9027Z" fill="#FF7050"/>
<path d="M39.4149 31.9171L38.8245 34.606C38.7142 35.1076 38.2699 35.4652 37.7561 35.4652H36.775C36.5886 35.4652 36.4119 35.4169 36.2563 35.3331C36.4445 35.6763 36.8052 35.9027 37.2125 35.9027H38.1936C38.7072 35.9027 39.1517 35.5453 39.262 35.0435L39.9484 31.9171H39.4149Z" fill="#FE5731"/>
<path d="M16.8125 8.30042H13.9688C13.727 8.30042 13.5312 8.10463 13.5312 7.86292V6.98792C13.5312 6.7462 13.727 6.55042 13.9688 6.55042H16.8125C17.0542 6.55042 17.25 6.7462 17.25 6.98792V7.86292C17.25 8.10442 17.0542 8.30042 16.8125 8.30042Z" fill="#FF4D25"/>
<path d="M16.8125 6.55042V7.42542C16.8125 7.66692 16.6167 7.86292 16.375 7.86292H13.5312C13.5312 8.10442 13.727 8.30042 13.9688 8.30042H16.8125C17.0542 8.30042 17.25 8.10442 17.25 7.86292V6.98792C17.25 6.7462 17.0542 6.55042 16.8125 6.55042Z" fill="#FF4D25"/>
</svg>
