<svg width="51" height="40" viewBox="0 0 51 40" fill="none" xmlns="http://www.w3.org/2000/svg">
<path d="M1.94583 25.7066L35.3498 6.29434C35.34 9.76455 37.7831 13.9893 40.7969 15.7293L7.39295 35.1416C4.37903 33.4016 1.93597 29.1768 1.94583 25.7066Z" fill="#FF7050"/>
<path d="M7.39258 35.1416L40.7966 15.7295L43.5564 17.3228L10.1524 36.735L7.39258 35.1416Z" fill="#FF7050"/>
<path d="M0.313965 19.7005L33.7179 0.288239L35.364 1.23867L1.96014 20.651L0.313965 19.7005Z" fill="#FFD2C7"/>
<path d="M1.96014 20.651L35.364 1.23868L35.3497 6.29447L1.9458 25.7066L1.96014 20.651Z" fill="#FF7050"/>
<path d="M47.446 17.7047L14.042 37.117C13.0486 37.6943 11.6724 37.6125 10.1528 36.735L43.5568 17.3228C45.0765 18.2002 46.4526 18.2819 47.446 17.7047Z" fill="#FF7050"/>
<path d="M48.5119 19.7969L15.1079 39.2091C16.4453 38.432 17.275 36.7789 17.2816 34.4286L50.6856 15.0164C50.6789 17.3666 49.8493 19.0197 48.5119 19.7969Z" fill="#FF7050"/>
<path d="M17.2958 29.5051L17.2818 34.4286C17.2684 39.1576 13.923 41.0642 9.81357 38.6917L7.71951 37.4827C3.61023 35.1102 0.286517 29.353 0.299845 24.6241L0.313733 19.7005L1.95991 20.651L1.94557 25.7066C1.93572 29.1769 4.37888 33.4016 7.39269 35.1416L10.1525 36.7349C13.1725 38.4786 15.6254 37.0806 15.6352 33.6105L15.6496 28.5547L17.2958 29.5051Z" fill="#FF9B85"/>
<path d="M17.2957 29.5051L50.6997 10.0928L50.6857 15.0165L17.2817 34.4288L17.2957 29.5051Z" fill="#FF7050"/>
<path d="M15.6499 28.5547L49.0539 9.14252L50.7001 10.0928L17.2961 29.5051L15.6499 28.5547Z" fill="#FFD2C7"/>
</svg>
