<svg viewBox="0 0 57 56" fill="none" xmlns="http://www.w3.org/2000/svg">
<path d="M4.94583 33.7066L38.3498 14.2943C38.34 17.7645 40.7831 21.9893 43.7969 23.7293L10.393 43.1416C7.37903 41.4016 4.93597 37.1768 4.94583 33.7066Z" fill="#FF7050"/>
<path d="M10.3926 43.1416L43.7966 23.7295L46.5564 25.3228L13.1524 44.735L10.3926 43.1416Z" fill="#FF7050"/>
<path d="M3.31396 27.7005L36.7179 8.28824L38.364 9.23867L4.96014 28.651L3.31396 27.7005Z" fill="#FFD2C7"/>
<path d="M4.96014 28.651L38.364 9.23868L38.3497 14.2945L4.9458 33.7066L4.96014 28.651Z" fill="#FF7050"/>
<path d="M50.446 25.7047L17.042 45.117C16.0486 45.6943 14.6724 45.6125 13.1528 44.735L46.5568 25.3228C48.0765 26.2002 49.4526 26.2819 50.446 25.7047Z" fill="#FF7050"/>
<path d="M51.5119 27.7969L18.1079 47.2091C19.4453 46.432 20.275 44.7789 20.2816 42.4286L53.6856 23.0164C53.6789 25.3666 52.8493 27.0197 51.5119 27.7969Z" fill="#FF7050"/>
<path d="M20.2958 37.5051L20.2818 42.4286C20.2684 47.1576 16.923 49.0642 12.8136 46.6917L10.7195 45.4827C6.61023 43.1102 3.28652 37.353 3.29984 32.6241L3.31373 27.7005L4.95991 28.651L4.94557 33.7066C4.93572 37.1769 7.37888 41.4016 10.3927 43.1416L13.1525 44.7349C16.1725 46.4786 18.6254 45.0806 18.6352 41.6105L18.6496 36.5547L20.2958 37.5051Z" fill="#FF9B85"/>
<path d="M20.2957 37.5051L53.6997 18.0928L53.6857 23.0165L20.2817 42.4288L20.2957 37.5051Z" fill="#FF7050"/>
<path d="M18.6499 36.5547L52.0539 17.1425L53.7001 18.0928L20.2961 37.5051L18.6499 36.5547Z" fill="#FFD2C7"/>
</svg>
