<svg width="47" height="48" viewBox="0 0 47 48" fill="none" xmlns="http://www.w3.org/2000/svg">
<path d="M23.3415 6.87033L5.60938 21.2807V46.0732C5.60938 47.1374 6.47203 48 7.53623 48H39.1469C40.2111 48 41.0737 47.1374 41.0737 46.0732V21.2809L23.3415 6.87033Z" fill="#FFC8BB"/>
<path d="M23.3419 21.1053C21.0457 23.042 18.1648 24.1501 15.1626 24.2512V29.9138C15.1626 37.3291 23.3419 39.9806 23.3419 39.9806C23.3419 39.9806 31.5212 37.3291 31.5212 29.9138V24.2512C28.519 24.1501 25.6381 23.042 23.3419 21.1053Z" fill="#FF4D25"/>
<path d="M31.521 23.622C27.1137 23.622 23.7976 20.6691 23.7644 20.6393C23.6485 20.5346 23.4979 20.4766 23.3417 20.4766C23.1855 20.4766 23.0349 20.5346 22.9189 20.6393C22.8858 20.6691 19.5697 23.622 15.1624 23.622C15.0797 23.622 14.9979 23.6383 14.9216 23.6699C14.8452 23.7015 14.7759 23.7478 14.7174 23.8062C14.659 23.8647 14.6127 23.934 14.5811 24.0104C14.5494 24.0867 14.5332 24.1686 14.5332 24.2512V29.9138C14.5332 37.6965 23.0615 40.5511 23.1475 40.5791C23.2737 40.62 23.4096 40.62 23.5358 40.5791C23.6219 40.5511 32.1502 37.6965 32.1502 29.9138V24.2512C32.1502 24.1686 32.1339 24.0867 32.1023 24.0104C32.0707 23.934 32.0243 23.8647 31.9659 23.8062C31.9075 23.7478 31.8381 23.7015 31.7618 23.6699C31.6854 23.6383 31.6036 23.622 31.521 23.622ZM30.8918 29.9138C30.8918 36.1564 24.5435 38.8568 23.3417 39.3118C22.1399 38.8568 15.7916 36.1564 15.7916 29.9138V24.8632C18.543 24.6479 21.1696 23.6247 23.3417 21.9222C25.5138 23.6247 28.1404 24.6479 30.8918 24.8632V29.9138ZM22.0833 32.7992L27.9303 26.9522C28.0485 26.8355 28.2081 26.7702 28.3743 26.7708C28.5405 26.7713 28.6997 26.8375 28.8172 26.955C28.9346 27.0725 29.0009 27.2317 29.0014 27.3979C29.0019 27.5641 28.9367 27.7237 28.8199 27.8419L22.5282 34.1337C22.4697 34.1921 22.4004 34.2385 22.3241 34.2701C22.2477 34.3017 22.1659 34.318 22.0833 34.318C22.0007 34.318 21.9189 34.3017 21.8425 34.2701C21.7662 34.2385 21.6969 34.1921 21.6385 34.1337L17.8634 30.3586C17.7466 30.2404 17.6814 30.0808 17.6819 29.9146C17.6825 29.7484 17.7487 29.5892 17.8662 29.4717C17.9837 29.3542 18.1429 29.288 18.3091 29.2875C18.4752 29.287 18.6349 29.3522 18.7531 29.469L22.0833 32.7992Z" fill="#FF4D25"/>
<path d="M22.0835 32.7992L27.9305 26.9522C28.0487 26.8355 28.2083 26.7703 28.3745 26.7708C28.5406 26.7713 28.6998 26.8376 28.8173 26.9551C28.9348 27.0726 29.0011 27.2318 29.0016 27.3979C29.0021 27.5641 28.9369 27.7237 28.8201 27.8419L22.5283 34.1337C22.4699 34.1921 22.4006 34.2385 22.3243 34.2701C22.2479 34.3018 22.1661 34.318 22.0835 34.318C22.0009 34.318 21.9191 34.3018 21.8427 34.2701C21.7664 34.2385 21.6971 34.1921 21.6386 34.1337L17.8636 30.3586C17.7468 30.2404 17.6816 30.0808 17.6821 29.9146C17.6827 29.7485 17.7489 29.5893 17.8664 29.4718C17.9839 29.3543 18.1431 29.288 18.3093 29.2875C18.4754 29.287 18.6351 29.3522 18.7533 29.469L22.0835 32.7992Z" fill="#FFC8BB"/>
<path d="M45.2888 16.9773L25.2169 0.665343C24.1256 -0.221781 22.5615 -0.221781 21.4706 0.665343L1.31681 17.0438C0.0437359 18.0781 -0.149528 19.9487 0.885001 21.2216C1.91914 22.4949 3.79031 22.6881 5.06281 21.6534L23.3437 6.79717L41.6243 21.6534C43.1982 22.8036 45.0801 22.319 46.0027 20.9453C46.855 19.6765 46.475 17.9413 45.2888 16.9773Z" fill="#FFB2A0"/>
<path d="M46.0024 19.1233C45.0798 20.4969 43.1976 20.9815 41.624 19.8316L23.3433 4.97534L5.06245 19.8316C3.78996 20.8663 1.91879 20.673 0.884646 19.3998C0.645138 19.1052 0.474418 18.7778 0.364587 18.4367C0.0670809 19.3611 0.226432 20.412 0.884646 21.2216C1.91879 22.4949 3.78996 22.6882 5.06245 21.6534L23.3433 6.79718L41.624 21.6534C43.1978 22.8034 45.0798 22.319 46.0024 20.9451C46.5016 20.2017 46.5754 19.2992 46.3145 18.4845C46.2396 18.7059 46.1382 18.921 46.0024 19.1233Z" fill="#FFB2A0"/>
</svg>
