<svg viewBox="0 0 56 56" fill="none" xmlns="http://www.w3.org/2000/svg">
<path d="M28.3415 10.8703L10.6094 25.2807V50.0732C10.6094 51.1374 11.472 52 12.5362 52H44.1469C45.2111 52 46.0737 51.1374 46.0737 50.0732V25.2809L28.3415 10.8703Z" fill="#FFC8BB"/>
<path d="M28.3419 25.1053C26.0457 27.042 23.1648 28.1501 20.1626 28.2512V33.9138C20.1626 41.3291 28.3419 43.9806 28.3419 43.9806C28.3419 43.9806 36.5212 41.3291 36.5212 33.9138V28.2512C33.519 28.1501 30.6381 27.042 28.3419 25.1053Z" fill="#FF4D25"/>
<path d="M36.521 27.622C32.1137 27.622 28.7976 24.6691 28.7644 24.6393C28.6485 24.5346 28.4979 24.4766 28.3417 24.4766C28.1855 24.4766 28.0349 24.5346 27.9189 24.6393C27.8858 24.6691 24.5697 27.622 20.1624 27.622C20.0797 27.622 19.9979 27.6383 19.9216 27.6699C19.8452 27.7015 19.7759 27.7478 19.7174 27.8062C19.659 27.8647 19.6127 27.934 19.5811 28.0104C19.5494 28.0867 19.5332 28.1686 19.5332 28.2512V33.9138C19.5332 41.6965 28.0615 44.5511 28.1475 44.5791C28.2737 44.62 28.4096 44.62 28.5358 44.5791C28.6219 44.5511 37.1502 41.6965 37.1502 33.9138V28.2512C37.1502 28.1686 37.1339 28.0867 37.1023 28.0104C37.0707 27.934 37.0243 27.8647 36.9659 27.8062C36.9075 27.7478 36.8381 27.7015 36.7618 27.6699C36.6854 27.6383 36.6036 27.622 36.521 27.622ZM35.8918 33.9138C35.8918 40.1564 29.5435 42.8568 28.3417 43.3118C27.1399 42.8568 20.7916 40.1564 20.7916 33.9138V28.8632C23.543 28.6479 26.1696 27.6247 28.3417 25.9222C30.5138 27.6247 33.1404 28.6479 35.8918 28.8632V33.9138ZM27.0833 36.7992L32.9303 30.9522C33.0485 30.8355 33.2081 30.7702 33.3743 30.7708C33.5405 30.7713 33.6997 30.8375 33.8172 30.955C33.9346 31.0725 34.0009 31.2317 34.0014 31.3979C34.0019 31.5641 33.9367 31.7237 33.8199 31.8419L27.5282 38.1337C27.4697 38.1921 27.4004 38.2385 27.3241 38.2701C27.2477 38.3017 27.1659 38.318 27.0833 38.318C27.0007 38.318 26.9189 38.3017 26.8425 38.2701C26.7662 38.2385 26.6969 38.1921 26.6385 38.1337L22.8634 34.3586C22.7466 34.2404 22.6814 34.0808 22.6819 33.9146C22.6825 33.7484 22.7487 33.5892 22.8662 33.4717C22.9837 33.3542 23.1429 33.288 23.3091 33.2875C23.4752 33.287 23.6349 33.3522 23.7531 33.469L27.0833 36.7992Z" fill="#FF4D25"/>
<path d="M27.0835 36.7992L32.9305 30.9522C33.0487 30.8355 33.2083 30.7703 33.3745 30.7708C33.5406 30.7713 33.6998 30.8376 33.8173 30.9551C33.9348 31.0726 34.0011 31.2318 34.0016 31.3979C34.0021 31.5641 33.9369 31.7237 33.8201 31.8419L27.5283 38.1337C27.4699 38.1921 27.4006 38.2385 27.3243 38.2701C27.2479 38.3018 27.1661 38.318 27.0835 38.318C27.0009 38.318 26.9191 38.3018 26.8427 38.2701C26.7664 38.2385 26.6971 38.1921 26.6386 38.1337L22.8636 34.3586C22.7468 34.2404 22.6816 34.0808 22.6821 33.9146C22.6827 33.7485 22.7489 33.5893 22.8664 33.4718C22.9839 33.3543 23.1431 33.288 23.3093 33.2875C23.4754 33.287 23.6351 33.3522 23.7533 33.469L27.0835 36.7992Z" fill="#FFC8BB"/>
<path d="M50.2888 20.9773L30.2169 4.66534C29.1256 3.77822 27.5615 3.77822 26.4706 4.66534L6.31681 21.0438C5.04374 22.0781 4.85047 23.9487 5.885 25.2216C6.91914 26.4949 8.79031 26.6881 10.0628 25.6534L28.3437 10.7972L46.6243 25.6534C48.1982 26.8036 50.0801 26.319 51.0027 24.9453C51.855 23.6765 51.475 21.9413 50.2888 20.9773Z" fill="#FFB2A0"/>
<path d="M51.0024 23.1233C50.0798 24.4969 48.1976 24.9815 46.624 23.8316L28.3433 8.97534L10.0625 23.8316C8.78996 24.8663 6.91879 24.673 5.88465 23.3998C5.64514 23.1052 5.47442 22.7778 5.36459 22.4367C5.06708 23.3611 5.22643 24.412 5.88465 25.2216C6.91879 26.4949 8.78996 26.6882 10.0625 25.6534L28.3433 10.7972L46.624 25.6534C48.1978 26.8034 50.0798 26.319 51.0024 24.9451C51.5016 24.2017 51.5754 23.2992 51.3145 22.4845C51.2396 22.7059 51.1382 22.921 51.0024 23.1233Z" fill="#FFB2A0"/>
</svg>
