<svg viewBox="0 0 57 56" fill="none" xmlns="http://www.w3.org/2000/svg">
<path fill-rule="evenodd" clip-rule="evenodd" d="M28.4997 23.0759C31.2192 23.0759 33.4238 25.2806 33.4238 28C33.4238 30.7194 31.2192 32.9241 28.4997 32.9241C25.7803 32.9241 23.5757 30.7194 23.5757 28C23.5757 25.2806 25.7803 23.0759 28.4997 23.0759ZM28.4997 25.9268C29.6448 25.9268 30.573 26.855 30.573 28C30.573 29.145 29.6448 30.0732 28.4997 30.0732C27.3547 30.0732 26.4265 29.145 26.4265 28C26.4265 26.855 27.3547 25.9268 28.4997 25.9268Z" fill="#FF4D25"/>
<path fill-rule="evenodd" clip-rule="evenodd" d="M8.8366 4.50012H48.1632C50.2734 4.50012 51.9999 6.22651 51.9999 8.33672V47.6633C51.9999 49.7735 50.2734 51.5 48.1632 51.5H8.8366C6.72639 51.5 5 49.7735 5 47.6633V8.33672C5 6.22651 6.72639 4.50012 8.8366 4.50012ZM28.4999 7.1378C40.0217 7.1378 49.3621 16.4782 49.3621 28C49.3621 39.5218 40.0217 48.8622 28.4999 48.8622C16.9781 48.8622 7.63767 39.5218 7.63767 28C7.63767 16.4782 16.9781 7.1378 28.4999 7.1378Z" fill="#FFB2A0"/>
<path fill-rule="evenodd" clip-rule="evenodd" d="M24.0889 11.5383C20.7495 16.273 23.6365 21.6563 24.8568 23.5345C25.8497 22.7235 27.1179 22.2367 28.4998 22.2367C28.6939 22.2367 28.8856 22.2465 29.0748 22.2652C28.4401 17.2636 31.8679 11.5407 31.8679 11.5407C27.8709 10.43 24.0889 11.5383 24.0889 11.5383Z" fill="#FF4D25"/>
<path fill-rule="evenodd" clip-rule="evenodd" d="M40.5504 15.9491C34.7804 15.4246 31.5622 20.6153 30.5459 22.6112C31.9728 23.1534 33.1289 24.2459 33.7543 25.6297C37.7685 22.5796 44.4378 22.6873 44.4378 22.6873C43.4011 18.6703 40.5504 15.9491 40.5504 15.9491Z" fill="#FF4D25"/>
<path fill-rule="evenodd" clip-rule="evenodd" d="M33.1782 31.3657C37.8271 33.317 41.0699 39.1465 41.0699 39.1465C44.0304 36.2403 44.9616 32.4109 44.9616 32.4109C42.5309 27.1516 36.426 26.96 34.1894 27.0777C34.2376 27.3781 34.2632 27.686 34.2632 28C34.2632 29.2564 33.8607 30.4188 33.1782 31.3657Z" fill="#FF4D25"/>
<path fill-rule="evenodd" clip-rule="evenodd" d="M12.5615 33.3128C13.5982 37.3298 16.449 40.0509 16.449 40.0509C22.2189 40.5755 25.4371 35.3847 26.4534 33.3889C25.0265 32.8467 23.8704 31.7541 23.245 30.3703C19.2308 33.4204 12.5615 33.3128 12.5615 33.3128Z" fill="#FF4D25"/>
<path fill-rule="evenodd" clip-rule="evenodd" d="M12.0381 23.5891C14.4688 28.8484 20.5738 29.04 22.8103 28.9224C22.762 28.622 22.7365 28.314 22.7365 28C22.7365 26.7438 23.1388 25.5816 23.8212 24.6346C19.1723 22.6834 15.9298 16.8535 15.9298 16.8535C12.9692 19.7598 12.0381 23.5891 12.0381 23.5891Z" fill="#FF4D25"/>
<path fill-rule="evenodd" clip-rule="evenodd" d="M27.9251 33.7348C28.5598 38.7365 25.1318 44.4593 25.1318 44.4593C29.1289 45.57 32.9108 44.4617 32.9108 44.4617C36.2502 39.727 33.3633 34.3437 32.143 32.4655C31.15 33.2765 29.8818 33.7633 28.4999 33.7633C28.306 33.7633 28.1142 33.7535 27.9251 33.7348Z" fill="#FF4D25"/>
</svg>
