<svg width="47" height="48" viewBox="0 0 47 48" fill="none" xmlns="http://www.w3.org/2000/svg">
<path fill-rule="evenodd" clip-rule="evenodd" d="M23.4997 19.0759C26.2192 19.0759 28.4238 21.2806 28.4238 24C28.4238 26.7194 26.2192 28.9241 23.4997 28.9241C20.7803 28.9241 18.5757 26.7194 18.5757 24C18.5757 21.2806 20.7803 19.0759 23.4997 19.0759ZM23.4997 21.9268C24.6448 21.9268 25.573 22.855 25.573 24C25.573 25.145 24.6448 26.0732 23.4997 26.0732C22.3547 26.0732 21.4265 25.145 21.4265 24C21.4265 22.855 22.3547 21.9268 23.4997 21.9268Z" fill="#FF4D25"/>
<path fill-rule="evenodd" clip-rule="evenodd" d="M3.8366 0.500122H43.1632C45.2734 0.500122 46.9999 2.22651 46.9999 4.33672V43.6633C46.9999 45.7735 45.2734 47.5 43.1632 47.5H3.8366C1.72639 47.5 0 45.7735 0 43.6633V4.33672C0 2.22651 1.72639 0.500122 3.8366 0.500122ZM23.4999 3.1378C35.0217 3.1378 44.3621 12.4782 44.3621 24C44.3621 35.5218 35.0217 44.8622 23.4999 44.8622C11.9781 44.8622 2.63767 35.5218 2.63767 24C2.63767 12.4782 11.9781 3.1378 23.4999 3.1378Z" fill="#FFB2A0"/>
<path fill-rule="evenodd" clip-rule="evenodd" d="M19.0889 7.53831C15.7495 12.273 18.6365 17.6563 19.8568 19.5345C20.8497 18.7235 22.1179 18.2367 23.4998 18.2367C23.6939 18.2367 23.8856 18.2465 24.0748 18.2652C23.4401 13.2636 26.8679 7.5407 26.8679 7.5407C22.8709 6.43003 19.0889 7.53831 19.0889 7.53831Z" fill="#FF4D25"/>
<path fill-rule="evenodd" clip-rule="evenodd" d="M35.5504 11.9491C29.7804 11.4246 26.5622 16.6153 25.5459 18.6112C26.9728 19.1534 28.1289 20.2459 28.7543 21.6297C32.7685 18.5796 39.4378 18.6873 39.4378 18.6873C38.4011 14.6703 35.5504 11.9491 35.5504 11.9491Z" fill="#FF4D25"/>
<path fill-rule="evenodd" clip-rule="evenodd" d="M28.1782 27.3657C32.8271 29.317 36.0699 35.1465 36.0699 35.1465C39.0304 32.2403 39.9616 28.4109 39.9616 28.4109C37.5309 23.1516 31.426 22.96 29.1894 23.0777C29.2376 23.3781 29.2632 23.686 29.2632 24C29.2632 25.2564 28.8607 26.4188 28.1782 27.3657Z" fill="#FF4D25"/>
<path fill-rule="evenodd" clip-rule="evenodd" d="M7.56152 29.3128C8.59825 33.3298 11.449 36.0509 11.449 36.0509C17.2189 36.5755 20.4371 31.3847 21.4534 29.3889C20.0265 28.8467 18.8704 27.7541 18.245 26.3703C14.2308 29.4204 7.56152 29.3128 7.56152 29.3128Z" fill="#FF4D25"/>
<path fill-rule="evenodd" clip-rule="evenodd" d="M7.03809 19.5891C9.46878 24.8484 15.5738 25.04 17.8103 24.9224C17.762 24.622 17.7365 24.314 17.7365 24C17.7365 22.7438 18.1388 21.5816 18.8212 20.6346C14.1723 18.6834 10.9298 12.8535 10.9298 12.8535C7.96921 15.7598 7.03809 19.5891 7.03809 19.5891Z" fill="#FF4D25"/>
<path fill-rule="evenodd" clip-rule="evenodd" d="M22.9251 29.7348C23.5598 34.7365 20.1318 40.4593 20.1318 40.4593C24.1289 41.57 27.9108 40.4617 27.9108 40.4617C31.2502 35.727 28.3633 30.3437 27.143 28.4655C26.15 29.2765 24.8818 29.7633 23.4999 29.7633C23.306 29.7633 23.1142 29.7535 22.9251 29.7348Z" fill="#FF4D25"/>
</svg>
