<svg viewBox="0 0 56 56" fill="none" xmlns="http://www.w3.org/2000/svg">
<path d="M47.4028 50.1698H8.52096V11.088H47.4028V50.1698Z" fill="#FFC8BB"/>
<path d="M8.52148 11.0879H47.4034V7.01758C47.4034 6.45537 46.948 6 46.3858 6H9.53907C8.97685 6 8.52148 6.45537 8.52148 7.01758V11.0879Z" fill="#FF6C4B"/>
<path d="M46.3853 6H43.8413C44.403 6 44.8589 6.45588 44.8589 7.01758V11.0879H47.4029V7.01758C47.4029 6.45537 46.947 6 46.3853 6Z" fill="#FF6C4B"/>
<path d="M14.6265 21.7726H41.2973C42.7021 21.7726 43.8413 22.9118 43.8413 24.3165V42.5379C43.8413 43.9427 42.7021 45.0819 41.2973 45.0819H14.6265C13.2217 45.0819 12.0825 43.9427 12.0825 42.5379V24.3165C12.0825 22.9113 13.2217 21.7726 14.6265 21.7726Z" fill="#58595B"/>
<path d="M14.6265 21.7726H41.2973C42.7021 21.7726 43.8413 22.9118 43.8413 24.3165V42.5379C43.8413 43.9427 42.7021 45.0819 41.2973 45.0819H14.6265C13.2217 45.0819 12.0825 43.9427 12.0825 42.5379V24.3165C12.0825 22.9113 13.2217 21.7726 14.6265 21.7726Z" fill="#FF6C4B"/>
<path d="M43.8413 34.906H12.0825V31.9484H43.8413V34.906Z" fill="#FFC8BB"/>
<path d="M13.6837 18.1932C14.568 18.1932 15.2849 17.4763 15.2849 16.592C15.2849 15.7077 14.568 14.9908 13.6837 14.9908C12.7994 14.9908 12.0825 15.7077 12.0825 16.592C12.0825 17.4763 12.7994 18.1932 13.6837 18.1932Z" fill="#FF6C4B"/>
<path d="M23.3507 18.1932C24.235 18.1932 24.9519 17.4763 24.9519 16.592C24.9519 15.7077 24.235 14.9908 23.3507 14.9908C22.4664 14.9908 21.7495 15.7077 21.7495 16.592C21.7495 17.4763 22.4664 18.1932 23.3507 18.1932Z" fill="#FF6C4B"/>
<path d="M42.2403 18.1932C43.1246 18.1932 43.8415 17.4763 43.8415 16.592C43.8415 15.7077 43.1246 14.9908 42.2403 14.9908C41.356 14.9908 40.6392 15.7077 40.6392 16.592C40.6392 17.4763 41.356 18.1932 42.2403 18.1932Z" fill="#FF6C4B"/>
<path d="M32.5733 18.1932C33.4576 18.1932 34.1745 17.4763 34.1745 16.592C34.1745 15.7077 33.4576 14.9908 32.5733 14.9908C31.689 14.9908 30.9722 15.7077 30.9722 16.592C30.9722 17.4763 31.689 18.1932 32.5733 18.1932Z" fill="#FF6C4B"/>
</svg>
