<svg width="40" height="45" viewBox="0 0 40 45" fill="none" xmlns="http://www.w3.org/2000/svg">
<path d="M39.4028 44.1698H0.520958V5.08797H39.4028V44.1698Z" fill="#FFC8BB"/>
<path d="M0.521484 5.08792H39.4034V1.01758C39.4034 0.455369 38.948 0 38.3858 0H1.53907C0.976853 0 0.521484 0.455369 0.521484 1.01758V5.08792Z" fill="#FF6C4B"/>
<path d="M38.3853 0H35.8413C36.403 0 36.8589 0.455878 36.8589 1.01758V5.08792H39.4029V1.01758C39.4029 0.455369 38.947 0 38.3853 0Z" fill="#FF6C4B"/>
<path d="M6.62648 15.7726H33.2973C34.7021 15.7726 35.8413 16.9118 35.8413 18.3165V36.5379C35.8413 37.9427 34.7021 39.0819 33.2973 39.0819H6.62648C5.2217 39.0819 4.08252 37.9427 4.08252 36.5379V18.3165C4.08252 16.9113 5.2217 15.7726 6.62648 15.7726Z" fill="#58595B"/>
<path d="M6.62648 15.7726H33.2973C34.7021 15.7726 35.8413 16.9118 35.8413 18.3165V36.5379C35.8413 37.9427 34.7021 39.0819 33.2973 39.0819H6.62648C5.2217 39.0819 4.08252 37.9427 4.08252 36.5379V18.3165C4.08252 16.9113 5.2217 15.7726 6.62648 15.7726Z" fill="#FF6C4B"/>
<path d="M35.8413 28.906H4.08252V25.9484H35.8413V28.906Z" fill="#FFC8BB"/>
<path d="M5.68369 12.1932C6.56799 12.1932 7.28486 11.4763 7.28486 10.592C7.28486 9.70771 6.56799 8.99084 5.68369 8.99084C4.79939 8.99084 4.08252 9.70771 4.08252 10.592C4.08252 11.4763 4.79939 12.1932 5.68369 12.1932Z" fill="#FF6C4B"/>
<path d="M15.3507 12.1932C16.235 12.1932 16.9519 11.4763 16.9519 10.592C16.9519 9.70771 16.235 8.99084 15.3507 8.99084C14.4664 8.99084 13.7495 9.70771 13.7495 10.592C13.7495 11.4763 14.4664 12.1932 15.3507 12.1932Z" fill="#FF6C4B"/>
<path d="M34.2403 12.1932C35.1246 12.1932 35.8415 11.4763 35.8415 10.592C35.8415 9.70771 35.1246 8.99084 34.2403 8.99084C33.356 8.99084 32.6392 9.70771 32.6392 10.592C32.6392 11.4763 33.356 12.1932 34.2403 12.1932Z" fill="#FF6C4B"/>
<path d="M24.5733 12.1932C25.4576 12.1932 26.1745 11.4763 26.1745 10.592C26.1745 9.70771 25.4576 8.99084 24.5733 8.99084C23.689 8.99084 22.9722 9.70771 22.9722 10.592C22.9722 11.4763 23.689 12.1932 24.5733 12.1932Z" fill="#FF6C4B"/>
</svg>
