<svg  viewBox="0 0 56 56" fill="none" xmlns="http://www.w3.org/2000/svg">
<path d="M28.2495 11.5822L11.0786 25.5365V49.5443C11.0786 50.5748 11.914 51.4102 12.9445 51.4102H43.5546C44.5852 51.4102 45.4205 50.5748 45.4205 49.5443V25.5367L28.2495 11.5822Z" fill="#FFC8BB"/>
<path d="M49.502 21.44L30.0654 5.64428C29.0086 4.78524 27.4941 4.78524 26.4376 5.64428L6.92173 21.5044C5.68895 22.506 5.50181 24.3174 6.50359 25.5499C7.50501 26.7829 9.31695 26.9701 10.5492 25.9681L28.2514 11.582L45.9535 25.9681C47.4775 27.0818 49.2999 26.6126 50.1933 25.2824C51.0186 24.0537 50.6506 22.3735 49.502 21.44Z" fill="#FF6C4B"/>
<path d="M50.193 23.518C49.2996 24.8482 47.477 25.3174 45.9532 24.2039L28.2511 9.81784L10.5489 24.2039C9.31664 25.2059 7.50469 25.0187 6.50328 23.7857C6.27135 23.5005 6.10604 23.1834 5.99968 22.8532C5.71159 23.7482 5.8659 24.7659 6.50328 25.5499C7.50469 26.7829 9.31664 26.97 10.5489 25.9681L28.2511 11.582L45.9532 25.9681C47.4772 27.0816 49.2996 26.6125 50.193 25.2822C50.6764 24.5623 50.7479 23.6883 50.4953 22.8995C50.4227 23.1138 50.3245 23.3221 50.193 23.518Z" fill="#FF4D25"/>
</svg>
