<svg width="46" height="47" viewBox="0 0 46 47" fill="none" xmlns="http://www.w3.org/2000/svg">
<path d="M23.2495 6.58224L6.07861 20.5365V44.5443C6.07861 45.5748 6.91396 46.4102 7.94448 46.4102H38.5546C39.5852 46.4102 40.4205 45.5748 40.4205 44.5443V20.5367L23.2495 6.58224Z" fill="#FFC8BB"/>
<path d="M44.502 16.44L25.0654 0.644285C24.0086 -0.214762 22.4941 -0.214762 21.4376 0.644285L1.92173 16.5044C0.688955 17.506 0.501808 19.3174 1.50359 20.5499C2.50501 21.7829 4.31695 21.9701 5.54917 20.9681L23.2514 6.58204L40.9535 20.9681C42.4775 22.0818 44.2999 21.6126 45.1933 20.2824C46.0186 19.0537 45.6506 17.3735 44.502 16.44Z" fill="#FF6C4B"/>
<path d="M45.193 18.518C44.2996 19.8482 42.477 20.3174 40.9532 19.2039L23.2511 4.81784L5.54886 19.2039C4.31664 20.2059 2.50469 20.0187 1.50328 18.7857C1.27135 18.5005 1.10604 18.1834 0.999682 17.8532C0.711591 18.7482 0.865899 19.7659 1.50328 20.5499C2.50469 21.7829 4.31664 21.97 5.54886 20.9681L23.2511 6.58202L40.9532 20.9681C42.4772 22.0816 44.2996 21.6125 45.193 20.2822C45.6764 19.5623 45.7479 18.6883 45.4953 17.8995C45.4227 18.1138 45.3245 18.3221 45.193 18.518Z" fill="#FF4D25"/>
</svg>
