<svg viewBox="0 0 56 56" fill="none" xmlns="http://www.w3.org/2000/svg">
<path d="M52.2664 11.7031H3.73311C2.18671 11.7031 0.933105 12.9567 0.933105 14.5031C0.933105 16.0495 2.18671 17.3031 3.73311 17.3031H52.2664C53.8128 17.3031 55.0664 16.0495 55.0664 14.5031C55.0664 12.9567 53.8128 11.7031 52.2664 11.7031Z" fill="#FFC8BB"/>
<path d="M3.73291 17.3031L4.31624 24.2985C4.69522 28.8545 6.92078 33.0575 10.4762 35.9315C10.9276 36.2887 11.1934 36.8307 11.1996 37.4062V40.4778C11.1661 42.0078 12.3249 43.3017 13.8493 43.4365C14.6176 43.4778 15.369 43.2011 15.9271 42.6714C16.4852 42.1418 16.8007 41.4059 16.7996 40.6365V39.1431C18.189 39.5116 19.62 39.6998 21.0574 39.7031H34.9417C36.3791 39.6998 37.8102 39.5116 39.1996 39.1431V40.4778C39.1661 42.0078 40.3249 43.3017 41.8493 43.4365C42.6176 43.4778 43.369 43.2011 43.9271 42.6714C44.4852 42.1418 44.8007 41.4059 44.7996 40.6365V37.4062C44.8067 36.83 45.0739 36.288 45.5266 35.9315C49.0821 33.0575 51.3077 28.8545 51.6866 24.2985L52.2662 17.3031" fill="#FFB2A0"/>
<path d="M12.8245 33.9659C12.6102 33.9664 12.4024 33.8925 12.2365 33.7569C9.26657 31.3691 7.41009 27.8644 7.10317 24.0661C7.07198 23.7319 7.22266 23.4066 7.49778 23.2144C7.7729 23.0221 8.13008 22.9923 8.43322 23.1364C8.73636 23.2806 8.93877 23.5764 8.9633 23.9111C9.22868 27.2032 10.8371 30.2411 13.4106 32.3111C13.7172 32.5603 13.8337 32.9756 13.7014 33.3479C13.5692 33.7202 13.2168 33.9688 12.8217 33.9687L12.8245 33.9659Z" fill="#FFC8BB"/>
<path d="M48.5332 44.3698H7.46654C6.95107 44.3698 6.5332 43.9519 6.5332 43.4364C6.5332 42.921 6.95107 42.5031 7.46654 42.5031H48.5332C49.0487 42.5031 49.4665 42.921 49.4665 43.4364C49.4665 43.9519 49.0487 44.3698 48.5332 44.3698Z" fill="#FFC8BB"/>
<path d="M24.9542 11.707H19.8945C19.3907 11.707 19 12.0755 19 12.7172V38.8333C19 39.475 19.6212 39.7037 20.125 39.7037H24.9542V12V11.707Z" fill="#FF4D25"/>
<path d="M37.2058 11.6992H26V39.7202H35.5C35.9257 39.7202 37.9973 39.475 37.9973 38.8333V12.6949C38.036 12.0532 37.6315 11.6992 37.2058 11.6992ZM29.4831 26.9917C29.4831 27.6333 29.1348 28.1583 28.7091 28.1583C28.2834 28.1583 27.9351 27.6333 27.9351 26.9917V24.8917C27.9351 24.25 28.2834 23.725 28.7091 23.725C29.1348 23.725 29.4831 24.25 29.4831 24.8917V26.9917Z" fill="#FF4D25"/>
</svg>
