<svg width="49" height="56" viewBox="0 0 49 56" fill="none" xmlns="http://www.w3.org/2000/svg">
<path d="M23.7157 15.4077C22.9141 15.4077 22.1843 15.9112 21.8997 16.6605L21.6226 17.3906H25.8836L25.4714 16.5193C25.152 15.844 24.4628 15.4077 23.7157 15.4077Z" fill="#FFC8BB"/>
<path d="M36.0548 28.0557V24.7744H38.3582V0H6.63379V6.61139H25.3611V12.3951C26.692 12.8404 27.8206 13.8127 28.4373 15.1162L31.0655 20.6719H16.8666L18.8318 15.4958C19.3966 14.0082 20.6142 12.8818 22.0798 12.3933V9.89264H6.63379V56H38.3582V28.0557H36.0548ZM20.0402 29.7622C18.9482 29.7622 18.0629 28.877 18.0629 27.785C18.0629 26.693 20.0402 23.5384 20.0402 23.5384C20.0402 23.5384 22.0175 26.693 22.0175 27.785C22.0175 28.877 21.1322 29.7622 20.0402 29.7622ZM24.184 36.7422C23.092 36.7422 22.2067 35.857 22.2067 34.765C22.2067 33.673 24.184 30.5184 24.184 30.5184C24.184 30.5184 26.1613 33.673 26.1613 34.765C26.1613 35.857 25.276 36.7422 24.184 36.7422ZM27.8066 29.7622C26.7146 29.7622 25.8293 28.877 25.8293 27.785C25.8293 26.693 27.8066 23.5384 27.8066 23.5384C27.8066 23.5384 29.7839 26.693 29.7839 27.785C29.7839 28.877 28.8986 29.7622 27.8066 29.7622Z" fill="#FFC8BB"/>
<path d="M25.3611 6.61139H6.63379V9.89264H22.0798V12.3933C20.6142 12.8818 19.3966 14.0082 18.8318 15.4958L16.8666 20.6719H31.0655L28.4373 15.1162C27.8206 13.8127 26.692 12.8404 25.3611 12.3951V6.61139Z" fill="#FFC8BB"/>
<path d="M20.0402 29.7622C18.9482 29.7622 18.0629 28.877 18.0629 27.785C18.0629 26.693 20.0402 23.5384 20.0402 23.5384C20.0402 23.5384 22.0175 26.693 22.0175 27.785C22.0175 28.877 21.1322 29.7622 20.0402 29.7622Z" fill="#FFC8BB"/>
<path d="M27.8066 29.7622C26.7146 29.7622 25.8293 28.877 25.8293 27.785C25.8293 26.693 27.8066 23.5384 27.8066 23.5384C27.8066 23.5384 29.7839 26.693 29.7839 27.785C29.7839 28.877 28.8986 29.7622 27.8066 29.7622Z" fill="#FFC8BB"/>
<path d="M24.184 36.7422C23.092 36.7422 22.2067 35.857 22.2067 34.765C22.2067 33.673 24.184 30.5184 24.184 30.5184C24.184 30.5184 26.1613 33.673 26.1613 34.765C26.1613 35.857 25.276 36.7422 24.184 36.7422Z" fill="#FFC8BB"/>
<path fill-rule="evenodd" clip-rule="evenodd" d="M19.9143 9.53395C18.2884 6.74874 15.2944 5 12.0128 5C10.0039 5 8.1441 5.65094 6.63323 6.75302V11.3653C7.64325 9.4216 9.67557 8.09095 12.0128 8.09095C13.7836 8.09095 15.4277 8.86013 16.5587 10.1426C13.0729 11.4767 10.5908 14.8567 10.5908 18.8061C10.5908 19.6596 11.2827 20.3515 12.1362 20.3515H27.5908C28.4443 20.3515 29.1362 19.6596 29.1362 18.8061C29.1362 13.7101 25.004 9.56158 19.9143 9.53395Z" fill="#FF4D25"/>
<path d="M27.0453 31.6848C27.8989 31.6848 28.5908 32.3768 28.5908 33.2303V35.2909C28.5908 36.1444 27.8989 36.8363 27.0453 36.8363C26.1918 36.8363 25.4999 36.1444 25.4999 35.2909V33.2303C25.4999 32.3768 26.1918 31.6848 27.0453 31.6848Z" fill="#FF4D25"/>
<path d="M20.8637 31.6848C21.7172 31.6848 22.4092 32.3768 22.4092 33.2303V35.2909C22.4092 36.1444 21.7172 36.8363 20.8637 36.8363C20.0102 36.8363 19.3182 36.1444 19.3182 35.2909V33.2303C19.3182 32.3768 20.0102 31.6848 20.8637 31.6848Z" fill="#FF4D25"/>
<path d="M14.6821 31.6848C15.5356 31.6848 16.2275 32.3768 16.2275 33.2303V35.2909C16.2275 36.1444 15.5356 36.8363 14.6821 36.8363C13.8285 36.8363 13.1366 36.1444 13.1366 35.2909V33.2303C13.1366 32.3768 13.8285 31.6848 14.6821 31.6848Z" fill="#FF4D25"/>
<path d="M27.0453 23.4424C27.8989 23.4424 28.5908 24.1343 28.5908 24.9879V27.0484C28.5908 27.902 27.8989 28.5939 27.0453 28.5939C26.1918 28.5939 25.4999 27.902 25.4999 27.0484V24.9879C25.4999 24.1343 26.1918 23.4424 27.0453 23.4424Z" fill="#FF4D25"/>
<path d="M20.8637 23.4424C21.7172 23.4424 22.4092 24.1343 22.4092 24.9879V27.0484C22.4092 27.902 21.7172 28.5939 20.8637 28.5939C20.0102 28.5939 19.3182 27.902 19.3182 27.0484V24.9879C19.3182 24.1343 20.0102 23.4424 20.8637 23.4424Z" fill="#FF4D25"/>
<path d="M14.6821 23.4424C15.5356 23.4424 16.2275 24.1343 16.2275 24.9879V27.0484C16.2275 27.902 15.5356 28.5939 14.6821 28.5939C13.8285 28.5939 13.1366 27.902 13.1366 27.0484V24.9879C13.1366 24.1343 13.8285 23.4424 14.6821 23.4424Z" fill="#FF4D25"/>
<path d="M41.6396 0H48.3658V56H41.6396V0Z" fill="#FFC8BB"/>
</svg>
