<svg viewBox="0 0 57 56" fill="none" xmlns="http://www.w3.org/2000/svg">
<path d="M24.7157 15.4077C23.9141 15.4077 23.1843 15.9112 22.8997 16.6605L22.6226 17.3906H26.8836L26.4714 16.5193C26.152 15.844 25.4628 15.4077 24.7157 15.4077Z" fill="#FFC8BB"/>
<path d="M37.0548 28.0557V24.7744H39.3582V0H7.63379V6.61139H26.3611V12.3951C27.692 12.8404 28.8206 13.8127 29.4373 15.1162L32.0655 20.6719H17.8666L19.8318 15.4958C20.3966 14.0082 21.6142 12.8818 23.0798 12.3933V9.89264H7.63379V56H39.3582V28.0557H37.0548ZM21.0402 29.7622C19.9482 29.7622 19.0629 28.877 19.0629 27.785C19.0629 26.693 21.0402 23.5384 21.0402 23.5384C21.0402 23.5384 23.0175 26.693 23.0175 27.785C23.0175 28.877 22.1322 29.7622 21.0402 29.7622ZM25.184 36.7422C24.092 36.7422 23.2067 35.857 23.2067 34.765C23.2067 33.673 25.184 30.5184 25.184 30.5184C25.184 30.5184 27.1613 33.673 27.1613 34.765C27.1613 35.857 26.276 36.7422 25.184 36.7422ZM28.8066 29.7622C27.7146 29.7622 26.8293 28.877 26.8293 27.785C26.8293 26.693 28.8066 23.5384 28.8066 23.5384C28.8066 23.5384 30.7839 26.693 30.7839 27.785C30.7839 28.877 29.8986 29.7622 28.8066 29.7622Z" fill="#FFC8BB"/>
<path d="M26.3611 6.61139H7.63379V9.89264H23.0798V12.3933C21.6142 12.8818 20.3966 14.0082 19.8318 15.4958L17.8666 20.6719H32.0655L29.4373 15.1162C28.8206 13.8127 27.692 12.8404 26.3611 12.3951V6.61139Z" fill="#FFC8BB"/>
<path d="M21.0402 29.7622C19.9482 29.7622 19.0629 28.877 19.0629 27.785C19.0629 26.693 21.0402 23.5384 21.0402 23.5384C21.0402 23.5384 23.0175 26.693 23.0175 27.785C23.0175 28.877 22.1322 29.7622 21.0402 29.7622Z" fill="#FFC8BB"/>
<path d="M28.8066 29.7622C27.7146 29.7622 26.8293 28.877 26.8293 27.785C26.8293 26.693 28.8066 23.5384 28.8066 23.5384C28.8066 23.5384 30.7839 26.693 30.7839 27.785C30.7839 28.877 29.8986 29.7622 28.8066 29.7622Z" fill="#FFC8BB"/>
<path d="M25.184 36.7422C24.092 36.7422 23.2067 35.857 23.2067 34.765C23.2067 33.673 25.184 30.5184 25.184 30.5184C25.184 30.5184 27.1613 33.673 27.1613 34.765C27.1613 35.857 26.276 36.7422 25.184 36.7422Z" fill="#FFC8BB"/>
<path fill-rule="evenodd" clip-rule="evenodd" d="M20.9143 9.53395C19.2884 6.74874 16.2944 5 13.0128 5C11.0039 5 9.1441 5.65094 7.63323 6.75302V11.3653C8.64325 9.4216 10.6756 8.09095 13.0128 8.09095C14.7836 8.09095 16.4277 8.86013 17.5587 10.1426C14.0729 11.4767 11.5908 14.8567 11.5908 18.8061C11.5908 19.6596 12.2827 20.3515 13.1362 20.3515H28.5908C29.4443 20.3515 30.1362 19.6596 30.1362 18.8061C30.1362 13.7101 26.004 9.56158 20.9143 9.53395Z" fill="#FF4D25"/>
<path d="M28.0453 31.6848C28.8989 31.6848 29.5908 32.3768 29.5908 33.2303V35.2909C29.5908 36.1444 28.8989 36.8363 28.0453 36.8363C27.1918 36.8363 26.4999 36.1444 26.4999 35.2909V33.2303C26.4999 32.3768 27.1918 31.6848 28.0453 31.6848Z" fill="#FF4D25"/>
<path d="M21.8637 31.6848C22.7172 31.6848 23.4092 32.3768 23.4092 33.2303V35.2909C23.4092 36.1444 22.7172 36.8363 21.8637 36.8363C21.0102 36.8363 20.3182 36.1444 20.3182 35.2909V33.2303C20.3182 32.3768 21.0102 31.6848 21.8637 31.6848Z" fill="#FF4D25"/>
<path d="M15.6821 31.6848C16.5356 31.6848 17.2275 32.3768 17.2275 33.2303V35.2909C17.2275 36.1444 16.5356 36.8363 15.6821 36.8363C14.8285 36.8363 14.1366 36.1444 14.1366 35.2909V33.2303C14.1366 32.3768 14.8285 31.6848 15.6821 31.6848Z" fill="#FF4D25"/>
<path d="M28.0453 23.4424C28.8989 23.4424 29.5908 24.1343 29.5908 24.9879V27.0484C29.5908 27.902 28.8989 28.5939 28.0453 28.5939C27.1918 28.5939 26.4999 27.902 26.4999 27.0484V24.9879C26.4999 24.1343 27.1918 23.4424 28.0453 23.4424Z" fill="#FF4D25"/>
<path d="M21.8637 23.4424C22.7172 23.4424 23.4092 24.1343 23.4092 24.9879V27.0484C23.4092 27.902 22.7172 28.5939 21.8637 28.5939C21.0102 28.5939 20.3182 27.902 20.3182 27.0484V24.9879C20.3182 24.1343 21.0102 23.4424 21.8637 23.4424Z" fill="#FF4D25"/>
<path d="M15.6821 23.4424C16.5356 23.4424 17.2275 24.1343 17.2275 24.9879V27.0484C17.2275 27.902 16.5356 28.5939 15.6821 28.5939C14.8285 28.5939 14.1366 27.902 14.1366 27.0484V24.9879C14.1366 24.1343 14.8285 23.4424 15.6821 23.4424Z" fill="#FF4D25"/>
<path d="M42.6396 0H49.3658V56H42.6396V0Z" fill="#FFC8BB"/>
</svg>
