<svg width="37" height="54" viewBox="0 0 37 54" fill="none" xmlns="http://www.w3.org/2000/svg">
<path d="M36.3281 53.9609H0.671875C0.430156 53.9609 0.234375 53.7652 0.234375 53.5234V18.9609H36.7656V53.5234C36.7656 53.7652 36.5698 53.9609 36.3281 53.9609Z" fill="#FF6C4B"/>
<path d="M35.6719 18.9609V51.7734C35.6719 52.3774 35.1821 52.8672 34.5781 52.8672H0.234375V53.5234C0.234375 53.7652 0.430156 53.9609 0.671875 53.9609H36.3281C36.5698 53.9609 36.7656 53.7652 36.7656 53.5234V18.9609H35.6719Z" fill="#FF4D25"/>
<path d="M3.73438 18.9609H33.2656V50.4609H3.73438V18.9609Z" fill="#FFC8BB"/>
<path d="M5.04688 32.5234C4.80538 32.5234 4.60938 32.3274 4.60938 32.0859V22.2422C4.60938 22.0007 4.80538 21.8047 5.04688 21.8047C5.28838 21.8047 5.48438 22.0007 5.48438 22.2422V32.0859C5.48438 32.3274 5.28838 32.5234 5.04688 32.5234ZM5.04688 20.9297C4.80538 20.9297 4.60938 20.7337 4.60938 20.4922V20.2734C4.60938 20.0319 4.80538 19.8359 5.04688 19.8359C5.28838 19.8359 5.48438 20.0319 5.48438 20.2734V20.4922C5.48438 20.7337 5.28838 20.9297 5.04688 20.9297Z" fill="#FFC8BB"/>
<path d="M31.0781 18.9609V47.1797C31.0781 47.7837 30.5883 48.2734 29.9844 48.2734H3.73438V50.4609H33.2656V18.9609H31.0781Z" fill="#FFC8BB"/>
<path d="M32.1719 18.9609V48.2734C32.1719 48.8774 31.6821 49.3672 31.0781 49.3672H3.73438V50.4609H33.2656V18.9609H32.1719Z" fill="#FFC8BB"/>
<path d="M17.0781 18.9609H19.9219V50.4609H17.0781V18.9609Z" fill="#FF6C4B"/>
<path d="M18.8281 18.9609H19.9219V50.4609H18.8281V18.9609Z" fill="#FF4D25"/>
<path d="M3.73438 36.1328V33.2891H33.2656V36.1328H3.73438Z" fill="#FF6C4B"/>
<path d="M32.1719 33.2891V34.6016C32.1719 34.8433 31.9761 35.0391 31.7344 35.0391H3.73438V36.1328H33.2656V33.2891H32.1719Z" fill="#FF4D25"/>
<path d="M18.5 0.0390625C8.41212 0.0390625 0.234375 8.21681 0.234375 18.3047V18.9609H36.7656V18.3047C36.7656 8.21681 28.5879 0.0390625 18.5 0.0390625Z" fill="#FFA994"/>
<path d="M18.5 3.32031C25.8673 3.32031 32.0098 8.66416 33.2542 15.6797H3.74575C4.99022 8.66416 11.1327 3.32031 18.5 3.32031ZM18.5 0.0390625C8.41212 0.0390625 0.234375 8.21681 0.234375 18.3047V18.9609H36.7656V18.3047C36.7656 8.21681 28.5879 0.0390625 18.5 0.0390625Z" fill="#FF6C4B"/>
<path d="M30.8559 4.85507C33.8453 8.10745 35.6719 12.4453 35.6719 17.2109V17.8672H0.245531C0.242031 18.0131 0.234375 18.1579 0.234375 18.3047V18.9609H36.7656V18.3047C36.7656 12.9825 34.488 8.19363 30.8559 4.85507Z" fill="#FF4D25"/>
<path d="M18.4999 3.32031C11.1326 3.32031 4.99007 8.66416 3.74561 15.6797H33.2541C32.0096 8.66416 25.8671 3.32031 18.4999 3.32031Z" fill="#FFC8BB"/>
<path d="M28.5333 7.18759C30.2551 9.09706 31.4948 11.4491 32.0554 14.0511C32.1145 14.3256 31.9086 14.5859 31.628 14.5859H3.98606C3.89375 14.946 3.8115 15.31 3.74609 15.6797H33.2546C32.6611 12.3361 30.9538 9.37422 28.5333 7.18759Z" fill="#FFC8BB"/>
<path d="M29.3583 7.99347C28.7032 7.30397 27.985 6.67528 27.2102 6.11987L17.9111 15.4189L18.1719 15.6797H21.6719L29.3583 7.99347Z" fill="#FF6C4B"/>
<path d="M28.2357 6.92859L20.5784 14.5859H18.7441L17.9111 15.4189L18.1719 15.6797H21.6719L29.3581 7.99346C29.0029 7.61918 28.6273 7.26481 28.2357 6.92859Z" fill="#FF4D25"/>
<path d="M7.6416 7.99347L15.3278 15.6797H18.8278L19.0886 15.4189L9.78951 6.11987C9.01491 6.67506 8.29676 7.30397 7.6416 7.99347Z" fill="#FF6C4B"/>
<path d="M17.9949 14.3252L17.7339 14.5859H14.2339L15.3276 15.6797H18.8276L19.0886 15.4189L17.9949 14.3252Z" fill="#FF4D25"/>
<path d="M18.5 3.32031C18.0205 3.32031 17.5463 3.34416 17.0781 3.38834V15.6797H19.9219V3.38834C19.4537 3.34416 18.9797 3.32031 18.5 3.32031Z" fill="#FF6C4B"/>
<path d="M18.8281 3.32776V14.5859H17.0781V15.6797H19.9219V3.38835C19.5609 3.35423 19.1958 3.33563 18.8281 3.32776Z" fill="#FF4D25"/>
</svg>
