<svg viewBox="0 0 57 56" fill="none" xmlns="http://www.w3.org/2000/svg">
<path d="M46.3281 54.9609H10.6719C10.4302 54.9609 10.2344 54.7652 10.2344 54.5234V19.9609H46.7656V54.5234C46.7656 54.7652 46.5698 54.9609 46.3281 54.9609Z" fill="#FF6C4B"/>
<path d="M45.6719 19.9609V52.7734C45.6719 53.3774 45.1821 53.8672 44.5781 53.8672H10.2344V54.5234C10.2344 54.7652 10.4302 54.9609 10.6719 54.9609H46.3281C46.5698 54.9609 46.7656 54.7652 46.7656 54.5234V19.9609H45.6719Z" fill="#FF4D25"/>
<path d="M13.7344 19.9609H43.2656V51.4609H13.7344V19.9609Z" fill="#FFC8BB"/>
<path d="M15.0469 33.5234C14.8054 33.5234 14.6094 33.3274 14.6094 33.0859V23.2422C14.6094 23.0007 14.8054 22.8047 15.0469 22.8047C15.2884 22.8047 15.4844 23.0007 15.4844 23.2422V33.0859C15.4844 33.3274 15.2884 33.5234 15.0469 33.5234ZM15.0469 21.9297C14.8054 21.9297 14.6094 21.7337 14.6094 21.4922V21.2734C14.6094 21.0319 14.8054 20.8359 15.0469 20.8359C15.2884 20.8359 15.4844 21.0319 15.4844 21.2734V21.4922C15.4844 21.7337 15.2884 21.9297 15.0469 21.9297Z" fill="#FFC8BB"/>
<path d="M41.0781 19.9609V48.1797C41.0781 48.7837 40.5883 49.2734 39.9844 49.2734H13.7344V51.4609H43.2656V19.9609H41.0781Z" fill="#FFC8BB"/>
<path d="M42.1719 19.9609V49.2734C42.1719 49.8774 41.6821 50.3672 41.0781 50.3672H13.7344V51.4609H43.2656V19.9609H42.1719Z" fill="#FFC8BB"/>
<path d="M27.0781 19.9609H29.9219V51.4609H27.0781V19.9609Z" fill="#FF6C4B"/>
<path d="M28.8281 19.9609H29.9219V51.4609H28.8281V19.9609Z" fill="#FF4D25"/>
<path d="M13.7344 37.1328V34.2891H43.2656V37.1328H13.7344Z" fill="#FF6C4B"/>
<path d="M42.1719 34.2891V35.6016C42.1719 35.8433 41.9761 36.0391 41.7344 36.0391H13.7344V37.1328H43.2656V34.2891H42.1719Z" fill="#FF4D25"/>
<path d="M28.5 1.03906C18.4121 1.03906 10.2344 9.21681 10.2344 19.3047V19.9609H46.7656V19.3047C46.7656 9.21681 38.5879 1.03906 28.5 1.03906Z" fill="#FFA994"/>
<path d="M28.5 4.32031C35.8673 4.32031 42.0098 9.66416 43.2542 16.6797H13.7457C14.9902 9.66416 21.1327 4.32031 28.5 4.32031ZM28.5 1.03906C18.4121 1.03906 10.2344 9.21681 10.2344 19.3047V19.9609H46.7656V19.3047C46.7656 9.21681 38.5879 1.03906 28.5 1.03906Z" fill="#FF6C4B"/>
<path d="M40.8559 5.85507C43.8453 9.10745 45.6719 13.4453 45.6719 18.2109V18.8672H10.2455C10.242 19.0131 10.2344 19.1579 10.2344 19.3047V19.9609H46.7656V19.3047C46.7656 13.9825 44.488 9.19363 40.8559 5.85507Z" fill="#FF4D25"/>
<path d="M28.4999 4.32031C21.1326 4.32031 14.9901 9.66416 13.7456 16.6797H43.2541C42.0096 9.66416 35.8671 4.32031 28.4999 4.32031Z" fill="#FFC8BB"/>
<path d="M38.5333 8.18759C40.2551 10.0971 41.4948 12.4491 42.0554 15.0511C42.1145 15.3256 41.9086 15.5859 41.628 15.5859H13.9861C13.8938 15.946 13.8115 16.31 13.7461 16.6797H43.2546C42.6611 13.3361 40.9538 10.3742 38.5333 8.18759Z" fill="#FFC8BB"/>
<path d="M39.3583 8.99347C38.7032 8.30397 37.985 7.67528 37.2102 7.11987L27.9111 16.4189L28.1719 16.6797H31.6719L39.3583 8.99347Z" fill="#FF6C4B"/>
<path d="M38.2357 7.92859L30.5784 15.5859H28.7441L27.9111 16.4189L28.1719 16.6797H31.6719L39.3581 8.99346C39.0029 8.61918 38.6273 8.26481 38.2357 7.92859Z" fill="#FF4D25"/>
<path d="M17.6416 8.99347L25.3278 16.6797H28.8278L29.0886 16.4189L19.7895 7.11987C19.0149 7.67506 18.2968 8.30397 17.6416 8.99347Z" fill="#FF6C4B"/>
<path d="M27.9949 15.3252L27.7339 15.5859H24.2339L25.3276 16.6797H28.8276L29.0886 16.4189L27.9949 15.3252Z" fill="#FF4D25"/>
<path d="M28.5 4.32031C28.0205 4.32031 27.5463 4.34416 27.0781 4.38834V16.6797H29.9219V4.38834C29.4537 4.34416 28.9797 4.32031 28.5 4.32031Z" fill="#FF6C4B"/>
<path d="M28.8281 4.32776V15.5859H27.0781V16.6797H29.9219V4.38835C29.5609 4.35423 29.1958 4.33563 28.8281 4.32776Z" fill="#FF4D25"/>
</svg>
